<?xml version="1.0" encoding="iso-8859-1"?>
<!-- Generator: Adobe Illustrator 19.0.0, SVG Export Plug-In . SVG Version: 6.00 Build 0)  -->
<svg xmlns="http://www.w3.org/2000/svg" xmlns:xlink="http://www.w3.org/1999/xlink" version="1.1" id="Capa_1" x="0px" y="0px" viewBox="0 0 512.001 512.001" style="enable-background:new 0 0 512.001 512.001;" xml:space="preserve" width="512px" height="512px">
<g>
	<g>
		<path d="M76.8,256.001H42.667c-4.713,0-8.533,3.82-8.533,8.533V486.4c0,14.138,11.461,25.6,25.6,25.6s25.6-11.461,25.6-25.6    V264.533C85.333,259.821,81.513,256.001,76.8,256.001z M68.268,486.4L68.268,486.4c-0.001,4.713-3.821,8.533-8.534,8.533    s-8.533-3.82-8.533-8.533V273.067h17.067V486.4z" fill="#FFFFFF"/>
	</g>
</g>
<g>
	<g>
		<path d="M76.8,136.534H42.667c-4.713,0-8.533,3.82-8.533,8.533v119.467c0,4.713,3.82,8.533,8.533,8.533H76.8    c4.713,0,8.533-3.82,8.533-8.533V145.068C85.333,140.355,81.513,136.534,76.8,136.534z M68.267,256.001H51.2V153.6h17.067V256.001    z" fill="#FFFFFF"/>
	</g>
</g>
<g>
	<g>
		<path d="M494.933,0.001h-17.067c-18.851,0-34.133,15.282-34.133,34.133v204.8c-0.186,17.048,12.236,31.62,29.099,34.133h1.536    h3.499h25.6c4.713,0,8.533-3.82,8.533-8.533V17.068C512,7.642,504.359,0.001,494.933,0.001z M476.842,256.001h-1.024    c-8.618-1.041-15.081-8.386-15.019-17.067v-204.8c0-9.426,7.641-17.067,17.067-17.067h17.067v238.934H476.842z" fill="#FFFFFF"/>
	</g>
</g>
<g>
	<g>
		<path d="M42.667,136.534c-14.138,0-25.6-11.461-25.6-25.6V8.534c0-4.713-3.821-8.533-8.534-8.533C3.82,0.001,0,3.821,0,8.534    v102.4C0,134.498,19.103,153.6,42.667,153.6c4.713,0,8.533-3.821,8.533-8.533C51.2,140.355,47.38,136.534,42.667,136.534z" fill="#FFFFFF"/>
	</g>
</g>
<g>
	<g>
		<path d="M110.933,0.001c-4.713,0-8.533,3.82-8.533,8.533v102.4c0,14.138-11.462,25.6-25.6,25.6c-4.713,0-8.533,3.82-8.533,8.533    c0,4.713,3.82,8.533,8.533,8.533c23.564,0,42.667-19.103,42.667-42.667V8.534C119.467,3.821,115.646,0.001,110.933,0.001z" fill="#FFFFFF"/>
	</g>
</g>
<g>
	<g>
		<path d="M110.933,93.868H8.533C3.82,93.868,0,97.688,0,102.401c0,4.713,3.82,8.533,8.533,8.533h102.4    c4.713,0,8.533-3.82,8.533-8.533C119.466,97.688,115.646,93.868,110.933,93.868z" fill="#FFFFFF"/>
	</g>
</g>
<g>
	<g>
		<path d="M42.667,0.001c-4.713,0-8.533,3.82-8.533,8.533v93.867c0,4.713,3.82,8.533,8.533,8.533s8.533-3.82,8.533-8.533V8.534    C51.2,3.821,47.38,0.001,42.667,0.001z" fill="#FFFFFF"/>
	</g>
</g>
<g>
	<g>
		<path d="M76.8,0.001c-4.713,0-8.533,3.82-8.533,8.533v93.867c0,4.713,3.82,8.533,8.533,8.533c4.713,0,8.533-3.82,8.533-8.533    V8.534C85.333,3.821,81.513,0.001,76.8,0.001z" fill="#FFFFFF"/>
	</g>
</g>
<g>
	<g>
		<path d="M503.467,256.001h-34.133c-4.713,0-8.533,3.82-8.533,8.533V486.4c0,14.138,11.461,25.6,25.6,25.6    c14.139,0,25.6-11.461,25.6-25.6V264.533C512,259.821,508.18,256.001,503.467,256.001z M494.934,486.4L494.934,486.4    c-0.001,4.713-3.821,8.533-8.534,8.533c-4.713,0-8.533-3.82-8.533-8.533V273.067h17.067V486.4z" fill="#FFFFFF"/>
	</g>
</g>
<g>
	<g>
		<path d="M483.157,263.254c-0.145-0.801-0.404-1.577-0.768-2.304c-1.26-2.762-3.892-4.646-6.912-4.949    c-8.618-1.041-15.081-8.386-15.019-17.067v-39.595c-0.019-1.437-0.401-2.846-1.109-4.096    c-27.088-48.867-72.266-85.157-125.825-101.071c-112.94-33.556-231.7,30.797-265.257,143.738c-0.112,0.792-0.112,1.597,0,2.389    v116.736c-0.12,0.821-0.12,1.654,0,2.475C95.583,449.839,178.698,511.725,273.067,512c94.345-0.264,177.453-62.11,204.8-152.405    c0.12-0.82,0.12-1.654,0-2.475v-84.565C481.597,271.082,483.798,267.212,483.157,263.254z M460.8,355.84    c-19.06,62.508-67.982,111.43-130.49,130.49c-103.682,31.615-213.362-26.808-244.977-130.49V241.579    c14.646-48.034,47.146-88.627,90.813-113.425c94.256-53.528,214.059-20.511,267.587,73.745v37.035    c0.013,12.182,6.517,23.434,17.067,29.525V355.84z" fill="#FFFFFF"/>
	</g>
</g>
<g>
	<g>
		<path d="M273.067,153.6C192.949,153.6,128,218.55,128,298.668s64.949,145.067,145.067,145.067s145.067-64.949,145.067-145.067    S353.185,153.6,273.067,153.6z M273.067,426.668c-70.693,0-128-57.308-128-128s57.308-128,128-128s128,57.308,128,128    S343.759,426.668,273.067,426.668z" fill="#FFFFFF"/>
	</g>
</g>
<g>
	<g>
		<path d="M273.067,187.733c-61.267,0-110.933,49.667-110.933,110.933c0,4.713,3.82,8.533,8.533,8.533s8.533-3.82,8.533-8.533    c0-51.841,42.026-93.867,93.867-93.867c4.713,0,8.533-3.82,8.533-8.533S277.779,187.733,273.067,187.733z" fill="#FFFFFF"/>
	</g>
</g>
<g>
	<g>
		<path d="M375.467,290.134c-4.713,0-8.533,3.82-8.533,8.533c0,51.841-42.026,93.867-93.867,93.867    c-4.713,0-8.533,3.821-8.533,8.533s3.821,8.533,8.533,8.533C334.333,409.6,384,359.934,384,298.668    C384,293.954,380.18,290.134,375.467,290.134z" fill="#FFFFFF"/>
	</g>
</g>
<g>
</g>
<g>
</g>
<g>
</g>
<g>
</g>
<g>
</g>
<g>
</g>
<g>
</g>
<g>
</g>
<g>
</g>
<g>
</g>
<g>
</g>
<g>
</g>
<g>
</g>
<g>
</g>
<g>
</g>
</svg>
