<?xml version="1.0" encoding="UTF-8"?>
<svg width="20px" height="20px" viewBox="0 0 20 20" version="1.1" xmlns="http://www.w3.org/2000/svg" xmlns:xlink="http://www.w3.org/1999/xlink">
    <!-- Generator: Sketch 47.1 (45422) - http://www.bohemiancoding.com/sketch -->
    <title>Larder-icon-duration</title>
    <desc>Created with Sketch.</desc>
    <defs></defs>
    <g id="Page-1" stroke="none" stroke-width="1" fill="none" fill-rule="evenodd">
        <g id="Larder-icon-duration">
            <g id="Icon">
                <rect id="Rectangle-2" x="0" y="0" width="20" height="20"></rect>
                <path d="M5.19913043,13.9913043 L5.19913043,17.826087 L3.58695652,17.826087 C3.26278939,17.826087 3,18.0888763 3,18.4130435 C3,18.7372106 3.26278939,19 3.58695652,19 L15.7173913,19 C16.0415584,19 16.3043478,18.7372106 16.3043478,18.4130435 C16.3043478,18.0888763 16.0415584,17.826087 15.7173913,17.826087 L14.1991304,17.826087 L14.1991304,14.0245652 C14.1987025,13.055427 13.7198553,12.1489852 12.9195652,11.6023913 L10.5267391,9.96478261 L12.9273913,8.23913043 C13.6944756,7.6891786 14.1502427,6.80385467 14.1521739,5.86 L14.1521739,2.17391304 L15.7173913,2.17391304 C16.0415584,2.17391304 16.3043478,1.91112365 16.3043478,1.58695652 C16.3043478,1.26278939 16.0415584,1 15.7173913,1 L3.58695652,1 C3.26278939,1 3.00000001,1.26278939 3.00000001,1.58695652 C3.00000001,1.91112365 3.26278939,2.17391304 3.58695652,2.17391304 L5.15217391,2.17391304 L5.15217391,5.82673913 C5.15216009,6.79551216 5.63023576,7.70187921 6.42978261,8.24891304 L8.8226087,9.88456522 L6.42391304,11.6063043 C5.65514824,12.157464 5.1991726,13.0453782 5.19913043,13.9913043 Z M6.32608696,5.82673913 L6.32608696,2.17391304 L12.9782609,2.17391304 L12.9782609,5.86 C12.9778026,6.42742133 12.7039394,6.95985216 12.2426087,7.29021739 L9.73630435,9.08826087 L7.09304348,7.28043478 C6.61305246,6.95222429 6.32603783,6.40821441 6.32608696,5.82673913 Z M7.10869565,12.561087 L9.61304348,10.7630435 L12.2563043,12.5708696 C12.7362954,12.8990801 13.02331,13.4430899 13.0232609,14.0245652 L13.0232609,17.826087 L6.37108696,17.826087 L6.37108696,13.9913043 C6.37136606,13.4228376 6.64606354,12.8894727 7.10869565,12.5591304 L7.10869565,12.561087 Z" id="Shape" fill="#FFFFFF" fill-rule="nonzero"></path>
            </g>
        </g>
    </g>
</svg>
