<?xml version="1.0" encoding="UTF-8"?>
<svg width="64px" height="44px" viewBox="0 0 64 44" version="1.1" xmlns="http://www.w3.org/2000/svg" xmlns:xlink="http://www.w3.org/1999/xlink">
    <!-- Generator: Sketch 47.1 (45422) - http://www.bohemiancoding.com/sketch -->
    <title>Artboard</title>
    <desc>Created with Sketch.</desc>
    <defs></defs>
    <g id="Page-1" stroke="none" stroke-width="1" fill="none" fill-rule="evenodd">
        <g id="Artboard" fill-rule="nonzero" fill="#FFFFFF">
            <path d="M61.8790629,18.6579639 L57.5998302,18.6579639 L57.6066226,18.4465494 C59.2002972,17.8199475 60.2599167,16.5956115 60.2599167,15.1590119 C60.2599167,13.5347714 58.9039773,12.1873226 56.9562472,11.6626071 C56.5436069,7.71026029 53.1949375,4.61885431 49.138157,4.61885431 L35.9132903,4.61885431 L35.9132903,3.36989573 C35.9132903,1.4799013 34.7203693,0 33.1954682,0 L30.8053809,0 C29.2821778,0 28.0875587,1.48075035 28.0875587,3.36989573 L28.0875587,4.61885431 L14.862692,4.61885431 C10.8059115,4.61885431 7.45809122,7.71026029 7.04460187,11.6626071 C5.09687177,12.1873226 3.74093237,13.5347714 3.74093237,15.1590119 C3.74093237,16.5956115 4.80140094,17.8199475 6.39422643,18.4465494 L6.40186792,18.6579639 L2.12093714,18.6579639 C0.932261403,18.6579639 0,19.7422059 0,21.1270132 L0,23.3795537 C0,24.6302104 0.77433734,25.7806787 1.80084375,26.052376 L6.68460293,27.3488816 L7.06582823,39.0429038 C7.06582823,41.7046884 9.19440686,43.8706254 11.8103425,43.8706254 L52.1905065,43.8706254 C54.8064422,43.8706254 56.9358699,41.7046884 56.9341718,39.0811112 L57.3162461,27.3488816 L62.2008544,26.052376 C63.2256627,25.7806787 64,24.6293614 64,23.3795537 L64,21.1270132 C64,19.743055 63.0677386,18.6579639 61.8790629,18.6579639 Z M30.4504763,3.36904667 C30.4504763,2.7636711 30.7230226,2.401125 30.8045318,2.36291756 L33.1691475,2.35867229 C33.2769774,2.40027594 33.5486747,2.76282204 33.5486747,3.36819762 L33.5486747,4.6171562 L30.4504763,4.6171562 L30.4504763,3.36904667 Z M14.862692,6.98262092 L49.1390061,6.98262092 C51.8075831,6.98262092 54.0363501,8.89638887 54.5321977,11.424872 L9.46950038,11.424872 C9.96534798,8.89638887 12.1932659,6.98262092 14.862692,6.98262092 Z M2.49282284,23.791345 C2.44272865,23.7251187 2.36461567,23.5654966 2.36461567,23.3804028 L2.36461567,21.1278622 C2.36461567,21.0871076 2.36886094,21.0522964 2.37565337,21.0225795 L6.47913184,21.0225795 L6.60479185,24.8823795 L2.49282284,23.791345 Z M54.5712542,39.0437528 C54.5712542,40.4022394 53.5031442,41.5077078 52.1905065,41.5077078 L11.8103425,41.5077078 C10.4977049,41.5077078 9.42959484,40.4013903 9.42959484,39.0038473 L8.77412508,18.8897556 C8.80469102,18.8906047 8.83355886,18.8931518 8.86327576,18.8931518 L55.1375733,18.8931518 C55.1689883,18.8931518 55.1970071,18.8906047 55.226724,18.8897556 L54.5712542,39.0437528 Z M55.1375733,16.5293852 L8.8624267,16.5293852 C7.2050731,16.5293852 6.10384993,15.7049537 6.10384993,15.1590119 C6.10384993,14.6139192 7.20422404,13.7894876 8.8624267,13.7894876 L55.1367242,13.7894876 C56.795776,13.7894876 57.895301,14.6147682 57.895301,15.1590119 C57.8961501,15.7058028 56.796625,16.5293852 55.1375733,16.5293852 Z M61.6362334,23.3795537 C61.6362334,23.5654966 61.5572714,23.7242697 61.5080262,23.7904959 L57.3969063,24.8815304 L57.5225663,21.0217305 L61.6251957,21.0217305 C61.6311391,21.0514474 61.6362334,21.0862586 61.6362334,21.1270132 L61.6362334,23.3795537 Z" id="Shape"></path>
        </g>
    </g>
</svg>
