<?xml version="1.0" encoding="UTF-8"?>
<svg width="60px" height="60px" viewBox="0 0 60 60" version="1.1" xmlns="http://www.w3.org/2000/svg" xmlns:xlink="http://www.w3.org/1999/xlink">
    <!-- Generator: Sketch 47.1 (45422) - http://www.bohemiancoding.com/sketch -->
    <title>larder-icon-profile</title>
    <desc>Created with Sketch.</desc>
    <defs>
        <path d="M54.6810552,56.9136691 C54.6810552,58.0659178 53.7469729,59 52.5947242,59 C51.4424755,59 50.5083933,58.0659178 50.5083933,56.9136691 C50.5083933,45.7752644 41.4789323,36.7458034 30.3405276,36.7458034 C19.2021229,36.7458034 10.1726619,45.7752644 10.1726619,56.9136691 C10.1726619,58.0659178 9.23857966,59 8.08633094,59 C6.93408221,59 6,58.0659178 6,56.9136691 C6,43.4707669 16.8976254,32.5731415 30.3405276,32.5731415 C43.7834297,32.5731415 54.6810552,43.4707669 54.6810552,56.9136691 Z M30.3405276,30.2086331 C22.2747862,30.2086331 15.736211,23.6700579 15.736211,15.6043165 C15.736211,7.5385752 22.2747862,1 30.3405276,1 C38.4062689,1 44.9448441,7.5385752 44.9448441,15.6043165 C44.9448441,23.6700579 38.4062689,30.2086331 30.3405276,30.2086331 Z M30.3405276,26.0359712 C36.1017713,26.0359712 40.7721823,21.3655603 40.7721823,15.6043165 C40.7721823,9.84307279 36.1017713,5.17266187 30.3405276,5.17266187 C24.5792838,5.17266187 19.9088729,9.84307279 19.9088729,15.6043165 C19.9088729,21.3655603 24.5792838,26.0359712 30.3405276,26.0359712 Z" id="path-1"></path>
    </defs>
    <g id="Page-1" stroke="none" stroke-width="1" fill="none" fill-rule="evenodd">
        <g id="lewagon-larder-icon-profile" fill-rule="nonzero">
            <g id="Shape">
                <use fill="#FFFFFF" fill-rule="evenodd" xlink:href="#path-1"></use>
                <path stroke="#FFFFFF" stroke-width="0.5" d="M54.9310552,56.9136691 C54.9310552,58.203989 53.8850441,59.25 52.5947242,59.25 C51.3044043,59.25 50.2583933,58.203989 50.2583933,56.9136691 C50.2583933,45.9133355 41.3408611,36.9958034 30.3405276,36.9958034 C19.3401941,36.9958034 10.4226619,45.9133355 10.4226619,56.9136691 C10.4226619,58.203989 9.37665085,59.25 8.08633094,59.25 C6.79601102,59.25 5.75,58.203989 5.75,56.9136691 C5.75,43.3326957 16.7595542,32.3231415 30.3405276,32.3231415 C43.9215009,32.3231415 54.9310552,43.3326957 54.9310552,56.9136691 Z M30.3405276,30.4586331 C22.136715,30.4586331 15.486211,23.8081291 15.486211,15.6043165 C15.486211,7.40050401 22.136715,0.75 30.3405276,0.75 C38.5443401,0.75 45.1948441,7.40050401 45.1948441,15.6043165 C45.1948441,23.8081291 38.5443401,30.4586331 30.3405276,30.4586331 Z M30.3405276,25.7859712 C35.9637002,25.7859712 40.5221823,21.2274891 40.5221823,15.6043165 C40.5221823,9.98114397 35.9637002,5.42266187 30.3405276,5.42266187 C24.717355,5.42266187 20.1588729,9.98114397 20.1588729,15.6043165 C20.1588729,21.2274891 24.717355,25.7859712 30.3405276,25.7859712 Z"></path>
            </g>
        </g>
    </g>
</svg>
