<?xml version="1.0" encoding="UTF-8"?>
<svg width="60px" height="60px" viewBox="0 0 60 60" version="1.1" xmlns="http://www.w3.org/2000/svg" xmlns:xlink="http://www.w3.org/1999/xlink">
    <!-- Generator: Sketch 47.1 (45422) - http://www.bohemiancoding.com/sketch -->
    <title>larder-icon-search</title>
    <desc>Created with Sketch.</desc>
    <defs></defs>
    <g id="Page-1" stroke="none" stroke-width="1" fill="none" fill-rule="evenodd">
        <g id="lewagon-larder-icon-search" fill-rule="nonzero" fill="#FFFFFF">
            <path d="M58.105905,53.7888319 C59.2980316,54.9809587 59.2980316,56.9137782 58.105905,58.105905 C56.9137782,59.2980317 54.9809587,59.2980317 53.7888319,58.105905 L38.8566725,43.1737455 C38.2628891,42.5799621 37.2108169,42.498853 36.537856,42.9589828 C36.537856,42.9589828 36.1254942,43.2791617 35.239263,43.7857012 C31.8950963,45.6971124 28.0224839,46.7894737 23.8947368,46.7894737 C11.2503229,46.7894737 1,36.5391508 1,23.8947369 C1,11.2503229 11.2503229,1 23.8947368,1 C36.5391508,1 46.7894737,11.2503229 46.7894737,23.8947369 C46.7894737,28.0505155 45.6822256,31.9476823 43.7466469,35.3073204 C43.2502184,36.1689847 42.9726688,36.5199391 42.9726688,36.5199391 C42.489937,37.216698 42.5776723,38.2605994 43.1737454,38.8566725 L58.105905,53.7888319 Z M23.8947368,40.6842106 C33.167307,40.6842106 40.6842105,33.1673071 40.6842105,23.8947369 C40.6842105,14.6221667 33.167307,7.10526316 23.8947368,7.10526316 C14.6221666,7.10526316 7.10526316,14.6221667 7.10526316,23.8947369 C7.10526316,33.1673071 14.6221666,40.6842106 23.8947368,40.6842106 Z" id="Shape"></path>
        </g>
    </g>
</svg>
