<?xml version="1.0" encoding="UTF-8"?>
<svg width="20px" height="20px" viewBox="0 0 20 20" version="1.1" xmlns="http://www.w3.org/2000/svg" xmlns:xlink="http://www.w3.org/1999/xlink">
    <!-- Generator: Sketch 47.1 (45422) - http://www.bohemiancoding.com/sketch -->
    <title>Larder-icon-servings</title>
    <desc>Created with Sketch.</desc>
    <defs></defs>
    <g id="Page-1" stroke="none" stroke-width="1" fill="none" fill-rule="evenodd">
        <g id="Larder-icon-servings">
            <g id="Icon">
                <rect id="Rectangle-2" x="0" y="0" width="20" height="20"></rect>
                <path d="M2.5,0.645312924 L2.5,0.644933554 L3.78985723,0.644933554 L3.78985723,7.03731423 C3.78985723,7.88027386 4.47575778,8.56655378 5.31871741,8.56655378 L6.58543308,8.56655378 C7.42915146,8.56655378 8.11581075,7.88065323 8.11581075,7.03731423 L8.11581075,0.644933554 L9.40566798,0.644933554 L9.40566798,7.03731423 C9.40566798,8.58817786 8.14691907,9.84920299 6.59757292,9.85603164 L6.59757292,20 L5.30771569,20 L5.30771569,9.85641101 C3.75836954,9.85034109 2.5,8.58855723 2.5,7.0376936 L2.5,0.645312924 Z M16.9904078,20 L16.9904078,19.9996206 L15.7005506,19.9996206 L15.7005506,13.4733224 L12.7122549,13.4733224 C12.3734777,13.4733224 12.0923647,13.2104192 12.0688438,12.8724007 C11.5377261,5.14653528 15.687652,0.412379883 15.8644384,0.214728232 C16.0427422,0.0163178405 16.3249933,-0.0534861977 16.5753773,0.0428737246 C16.8250026,0.137716168 16.9904078,0.377857234 16.9904078,0.645312924 L16.9904078,12.8280144 L16.9904078,20 Z M13.3245577,12.1834652 L15.7005506,12.1834652 L15.7005506,2.70453205 C14.6189674,4.54068175 13.1701542,7.84309563 13.3245577,12.1834652 Z M5.30771569,0.645312924 L6.59757292,0.645312924 L6.59757292,6.77441098 L5.30771569,6.77441098 L5.30771569,0.645312924 Z" id="Combined-Shape" fill="#FFFFFF" fill-rule="nonzero"></path>
            </g>
        </g>
    </g>
</svg>